<svg width="40" height="40" viewBox="0 0 40 40" fill="none" xmlns="http://www.w3.org/2000/svg">
<circle opacity="0.5" cx="20" cy="20" r="19.5" stroke="white"/>
<path d="M18.4998 19.1667C20.3408 19.1667 21.8332 17.6743 21.8332 15.8333C21.8332 13.9924 20.3408 12.5 18.4998 12.5C16.6589 12.5 15.1665 13.9924 15.1665 15.8333C15.1665 17.6743 16.6589 19.1667 18.4998 19.1667Z" stroke="white" stroke-width="1.5" stroke-linecap="round" stroke-linejoin="round"/>
<path d="M13.5 27.5V25.8333C13.5 24.9493 13.8512 24.1014 14.4763 23.4763C15.1014 22.8512 15.9493 22.5 16.8333 22.5H20.1667C21.0507 22.5 21.8986 22.8512 22.5237 23.4763C23.1488 24.1014 23.5 24.9493 23.5 25.8333V27.5" stroke="white" stroke-width="1.5" stroke-linecap="round" stroke-linejoin="round"/>
<path d="M24.3335 19.1667L26.0002 20.8333L29.3335 17.5" stroke="white" stroke-width="1.5" stroke-linecap="round" stroke-linejoin="round"/>
</svg>
