<svg width="40" height="40" viewBox="0 0 40 40" fill="none" xmlns="http://www.w3.org/2000/svg">
<circle opacity="0.5" cx="20" cy="20" r="19.5" stroke="white"/>
<g clip-path="url(#clip0_200_25914)">
<path d="M20.1747 18.1842C21.9747 18.5703 23.7468 17.4241 24.1329 15.6241C24.5189 13.824 23.3727 12.0519 21.5727 11.6658C19.7727 11.2798 18.0005 12.426 17.6145 14.226C17.2284 16.026 18.3746 17.7982 20.1747 18.1842Z" stroke="white" stroke-width="1.5" stroke-linecap="round" stroke-linejoin="round"/>
<path d="M13.9456 25.3717C15.7457 25.7578 17.5178 24.6116 17.9039 22.8116C18.2899 21.0115 17.1437 19.2394 15.3437 18.8533C13.5437 18.4673 11.7715 19.6135 11.3855 21.4135C10.9994 23.2135 12.1456 24.9857 13.9456 25.3717Z" stroke="white" stroke-width="1.5" stroke-linecap="round" stroke-linejoin="round"/>
<path d="M22.9085 27.2936C24.7086 27.6797 26.4807 26.5334 26.8668 24.7334C27.2528 22.9334 26.1066 21.1613 24.3066 20.7752C22.5066 20.3891 20.7344 21.5354 20.3483 23.3354C19.9623 25.1354 21.1085 26.9076 22.9085 27.2936Z" stroke="white" stroke-width="1.5" stroke-linecap="round" stroke-linejoin="round"/>
</g>
<defs>
<clipPath id="clip0_200_25914">
<rect width="20" height="20" fill="white" transform="translate(12.3193 7.125) rotate(12.1051)"/>
</clipPath>
</defs>
</svg>
